<svg xmlns="http://www.w3.org/2000/svg" viewBox="0 0 512 512" role="img" aria-labelledby="t d"><title id="t">CYRUS PANEL Falcon C</title><desc id="d">A sharp winged C symbol suggesting speed and command.</desc><defs><linearGradient id="bg" x1="0" y1="0" x2="1" y2="1"><stop stop-color="#0b1a27"/><stop offset="1" stop-color="#020509"/></linearGradient><linearGradient id="cyan" x1="0" y1="0" x2="1" y2="1"><stop stop-color="#d1fdff"/><stop offset=".45" stop-color="#26ddeb"/><stop offset="1" stop-color="#036a92"/></linearGradient><linearGradient id="red" x1="0" y1="0" x2="1" y2="1"><stop stop-color="#ff7189"/><stop offset="1" stop-color="#a90e36"/></linearGradient></defs><rect width="512" height="512" rx="104" fill="url(#bg)"/><path d="M418 142 286 188l-71-53-121 92 110 14-100 64 112-3-74 80 122-58 29 84 43-113 82-38-84-19Z" fill="url(#cyan)"/><path d="m418 142-132 46 48 50 84 19-82 38-43 113-29-84 20-76-69-113 71 53Z" fill="#063348" opacity=".82"/><path d="M337 200c-16-20-41-32-69-32-48 0-88 39-88 88s40 88 88 88c28 0 53-12 69-32l-42-33c-7 8-16 13-27 13-20 0-36-16-36-36s16-36 36-36c11 0 20 5 27 13Z" fill="url(#red)"/><circle cx="352" cy="205" r="8" fill="#fff1f4"/></svg>