<svg xmlns="http://www.w3.org/2000/svg" viewBox="0 0 512 512" role="img" aria-labelledby="t d"><title id="t">CYRUS PANEL Nexus Ring</title><desc id="d">A clean segmented nexus ring with a central forward arrow.</desc><defs><linearGradient id="bg" x1="0" y1="0" x2="1" y2="1"><stop stop-color="#081a29"/><stop offset="1" stop-color="#02060a"/></linearGradient><linearGradient id="cyan" x1="0" y1="0" x2="1" y2="1"><stop stop-color="#c6fbff"/><stop offset=".5" stop-color="#22d3ee"/><stop offset="1" stop-color="#075985"/></linearGradient><linearGradient id="red" x1="0" y1="0" x2="1" y2="1"><stop stop-color="#ff7b92"/><stop offset="1" stop-color="#be123c"/></linearGradient></defs><rect width="512" height="512" rx="128" fill="url(#bg)"/><circle cx="256" cy="256" r="154" fill="none" stroke="#113b50" stroke-width="46"/><path d="M156 373a154 154 0 0 1-41-156" fill="none" stroke="url(#cyan)" stroke-width="46" stroke-linecap="round"/><path d="M163 139a154 154 0 0 1 169-23" fill="none" stroke="url(#cyan)" stroke-width="46" stroke-linecap="round"/><path d="M380 169a154 154 0 0 1 23 161" fill="none" stroke="url(#red)" stroke-width="46" stroke-linecap="round"/><path d="m187 211 69 45-69 45 15-45Z" fill="url(#cyan)"/><path d="m255 177 121 79-121 79 27-79Z" fill="url(#red)"/><circle cx="256" cy="256" r="28" fill="#e9fdff"/><circle cx="256" cy="256" r="13" fill="#0b5f79"/></svg>